<?xml version="1.0" encoding="UTF-8" standalone="no"?>
<!DOCTYPE svg PUBLIC "-//W3C//DTD SVG 1.1//EN" "http://www.w3.org/Graphics/SVG/1.1/DTD/svg11.dtd">
<svg width="100%" height="100%" viewBox="0 0 68 105" version="1.1" xmlns="http://www.w3.org/2000/svg" xmlns:xlink="http://www.w3.org/1999/xlink" xml:space="preserve" xmlns:serif="http://www.serif.com/" style="fill-rule:evenodd;clip-rule:evenodd;stroke-linejoin:round;stroke-miterlimit:2;">
    <g transform="matrix(1,0,0,1,-74.6173,-233.5)">
        <g transform="matrix(1,0,0,1,31.4796,136.054)">
            <path d="M72.7,97.447C80.716,97.447 87.554,98.795 93.213,101.493C98.871,104.191 103.206,108.046 106.215,113.057C109.225,118.069 110.73,124.093 110.73,131.129C110.73,135.305 110.097,139.462 108.83,143.6C107.563,147.737 105.542,151.481 102.767,154.832C99.992,158.182 96.33,160.872 91.779,162.902C87.229,164.933 81.671,165.948 75.106,165.948L59.869,165.948L59.869,202.308L43.138,202.308L43.138,97.447L72.7,97.447ZM75.004,149.705C78.72,149.705 81.814,149.081 84.286,147.833C86.758,146.585 88.694,145.006 90.095,143.096C91.496,141.185 92.504,139.189 93.119,137.105C93.734,135.022 94.042,133.164 94.042,131.532C94.042,129.813 93.766,127.929 93.214,125.88C92.662,123.831 91.706,121.873 90.347,120.005C88.988,118.138 87.106,116.602 84.702,115.397C82.297,114.193 79.243,113.59 75.538,113.59L59.869,113.59L59.869,149.705L75.004,149.705Z" style="fill:rgb(255,156,0);fill-rule:nonzero;"/>
        </g>
    </g>
</svg>
